STARTFONT 2.1 
COMMENT =========================================================================
COMMENT Created with Raster Font Editor v0.14, ©2005-2013 CyLog Software
COMMENT =========================================================================
FONT Annax9x16
SIZE 8 96 96
FONTBOUNDINGBOX 9 16 0 -1
STARTPROPERTIES 15
FONTNAME_REGISTRY ""
FOUNDRY ""
FAMILY_NAME "Annax9x16"
WEIGHT_NAME "Normal"
SLANT "R"
SETWIDTH_NAME "Normal"
ADD_STYLE_NAME "Regular"
PIXEL_SIZE 16
CHARSET_REGISTRY "ISO8859"
CHARSET_ENCODING "1"
FONT_ASCENT 15
FONT_DESCENT 1
DEFAULT_CHAR 32
COPYRIGHT "Copyright 2016"
FACE_NAME "Annax9x16"
ENDPROPERTIES
CHARS 96
STARTCHAR 0
ENCODING 32
SWIDTH 9000 0
DWIDTH 9 0
BBX 9 16 0 -1
BITMAP
0000
0000
0000
0000
0000
0000
0000
0000
0000
0000
0000
0000
0000
0000
0000
0000
ENDCHAR
STARTCHAR 1
ENCODING 33
SWIDTH 9000 0
DWIDTH 9 0
BBX 9 16 0 -1
BITMAP
C0C0
C0C0
C0C0
C0C0
C0C0
C0C0
0000
C0C0
0000
0000
0000
0000
0000
0000
0000
0000
ENDCHAR
STARTCHAR 2
ENCODING 34
SWIDTH 9000 0
DWIDTH 9 0
BBX 9 16 0 -1
BITMAP
1824
2418
0000
0000
0000
0000
0000
0000
0000
0000
0000
0000
0000
0000
0000
0000
ENDCHAR
STARTCHAR 3
ENCODING 35
SWIDTH 9000 0
DWIDTH 9 0
BBX 9 16 0 -1
BITMAP
0C0C
0C19
19FF
FF33
33FF
FF66
66CC
CCCC
8080
8080
8080
8000
0080
8000
0000
0000
ENDCHAR
STARTCHAR 4
ENCODING 36
SWIDTH 9000 0
DWIDTH 9 0
BBX 9 16 0 -1
BITMAP
183C
7EFF
DBF8
7838
1C1E
1FDB
FF7E
3C18
0000
0000
0000
0000
0000
0000
0000
0000
ENDCHAR
STARTCHAR 5
ENCODING 37
SWIDTH 9000 0
DWIDTH 9 0
BBX 9 16 0 -1
BITMAP
6090
9061
0307
0E1C
3870
E0C3
8404
0300
0000
8080
8000
0000
0000
0000
8080
0000
ENDCHAR
STARTCHAR 6
ENCODING 38
SWIDTH 9000 0
DWIDTH 9 0
BBX 9 16 0 -1
BITMAP
0000
0000
0000
0000
0000
0000
0000
0000
0000
0000
0000
0000
0000
0000
0000
0000
ENDCHAR
STARTCHAR 7
ENCODING 39
SWIDTH 9000 0
DWIDTH 9 0
BBX 9 16 0 -1
BITMAP
0C0C
0C00
0000
0000
0000
0000
0000
0000
0000
0000
0000
0000
0000
0000
0000
0000
ENDCHAR
STARTCHAR 8
ENCODING 40
SWIDTH 9000 0
DWIDTH 9 0
BBX 9 16 0 -1
BITMAP
0C18
3060
60C0
C0C0
C0C0
C060
6030
180C
0000
0000
0000
0000
0000
0000
0000
0000
ENDCHAR
STARTCHAR 9
ENCODING 41
SWIDTH 9000 0
DWIDTH 9 0
BBX 9 16 0 -1
BITMAP
C060
3018
180C
0C0C
0C0C
0C18
1830
60C0
0000
0000
0000
0000
0000
0000
0000
0000
ENDCHAR
STARTCHAR 10
ENCODING 42
SWIDTH 9000 0
DWIDTH 9 0
BBX 9 16 0 -1
BITMAP
0000
0000
0014
3E1C
3E14
0000
0000
0000
0000
0000
0000
0000
0000
0000
0000
0000
ENDCHAR
STARTCHAR 11
ENCODING 43
SWIDTH 9000 0
DWIDTH 9 0
BBX 9 16 0 -1
BITMAP
0000
0018
1818
FFFF
1818
1800
0000
0000
0000
0000
0000
0000
0000
0000
0000
0000
ENDCHAR
STARTCHAR 12
ENCODING 44
SWIDTH 9000 0
DWIDTH 9 0
BBX 9 16 0 -1
BITMAP
0000
0000
0000
0000
0000
0000
0018
1830
0000
0000
0000
0000
0000
0000
0000
0000
ENDCHAR
STARTCHAR 13
ENCODING 45
SWIDTH 9000 0
DWIDTH 9 0
BBX 9 16 0 -1
BITMAP
0000
0000
0000
7F7F
0000
0000
0000
0000
0000
0000
0000
0000
0000
0000
0000
0000
ENDCHAR
STARTCHAR 14
ENCODING 46
SWIDTH 9000 0
DWIDTH 9 0
BBX 9 16 0 -1
BITMAP
0000
0000
0000
0000
0000
0000
0000
1818
0000
0000
0000
0000
0000
0000
0000
0000
ENDCHAR
STARTCHAR 15
ENCODING 47
SWIDTH 9000 0
DWIDTH 9 0
BBX 9 16 0 -1
BITMAP
0101
0303
0606
0C0C
1818
3030
6060
C0C0
8080
0000
0000
0000
0000
0000
0000
0000
ENDCHAR
STARTCHAR 16
ENCODING 48
SWIDTH 9000 0
DWIDTH 9 0
BBX 9 16 0 -1
BITMAP
3E7F
E3C1
C1C1
C1C1
C1C1
C1C1
C1E3
7F3E
0000
8080
8080
8080
8080
8080
8080
0000
ENDCHAR
STARTCHAR 17
ENCODING 49
SWIDTH 9000 0
DWIDTH 9 0
BBX 9 16 0 -1
BITMAP
0818
3878
1818
1818
1818
1818
1818
FEFE
0000
0000
0000
0000
0000
0000
0000
0000
ENDCHAR
STARTCHAR 18
ENCODING 50
SWIDTH 9000 0
DWIDTH 9 0
BBX 9 16 0 -1
BITMAP
3E7F
E3C1
0101
0307
0E1C
3870
E0C0
FFFF
0000
8080
8080
8000
0000
0000
0000
8080
ENDCHAR
STARTCHAR 19
ENCODING 51
SWIDTH 9000 0
DWIDTH 9 0
BBX 9 16 0 -1
BITMAP
3E7F
E3C1
0101
030F
0F03
0101
C1E3
7F3E
0000
8080
8080
8000
0080
8080
8080
0000
ENDCHAR
STARTCHAR 20
ENCODING 52
SWIDTH 9000 0
DWIDTH 9 0
BBX 9 16 0 -1
BITMAP
C0C0
C0C0
C0C6
C6C6
C6FF
FF06
0606
0606
0000
0000
0000
0000
0080
8000
0000
0000
ENDCHAR
STARTCHAR 21
ENCODING 53
SWIDTH 9000 0
DWIDTH 9 0
BBX 9 16 0 -1
BITMAP
FFFF
C0C0
C0FE
FF03
0101
0101
C1E3
7F3E
8080
0000
0000
0080
8080
8080
8080
0000
ENDCHAR
STARTCHAR 22
ENCODING 54
SWIDTH 9000 0
DWIDTH 9 0
BBX 9 16 0 -1
BITMAP
3E7F
E3C0
C0C0
FEFF
C3C1
C1C1
C1E3
7F3E
0000
8000
0000
0000
8080
8080
8080
0000
ENDCHAR
STARTCHAR 23
ENCODING 55
SWIDTH 9000 0
DWIDTH 9 0
BBX 9 16 0 -1
BITMAP
FFFF
0101
0103
070E
1C18
1818
1818
1818
8080
8080
8080
0000
0000
0000
0000
0000
ENDCHAR
STARTCHAR 24
ENCODING 56
SWIDTH 9000 0
DWIDTH 9 0
BBX 9 16 0 -1
BITMAP
3E7F
E3C1
C1C1
E33E
3EE3
C1C1
C1E3
7F3E
0000
8080
8080
8000
0080
8080
8080
0000
ENDCHAR
STARTCHAR 25
ENCODING 57
SWIDTH 9000 0
DWIDTH 9 0
BBX 9 16 0 -1
BITMAP
3E7F
E3C1
C1C1
C1E1
7F3F
0101
C1E3
7F3E
0000
8080
8080
8080
8080
8080
8080
0000
ENDCHAR
STARTCHAR 26
ENCODING 58
SWIDTH 9000 0
DWIDTH 9 0
BBX 9 16 0 -1
BITMAP
0000
0000
0000
0000
1818
0000
0000
1818
0000
0000
0000
0000
0000
0000
0000
0000
ENDCHAR
STARTCHAR 27
ENCODING 59
SWIDTH 9000 0
DWIDTH 9 0
BBX 9 16 0 -1
BITMAP
0000
0000
0000
0000
1818
0000
0018
1830
0000
0000
0000
0000
0000
0000
0000
0000
ENDCHAR
STARTCHAR 28
ENCODING 60
SWIDTH 9000 0
DWIDTH 9 0
BBX 9 16 0 -1
BITMAP
0000
0000
0C18
3060
C0C0
6030
180C
0000
0000
0000
0000
0000
0000
0000
0000
0000
ENDCHAR
STARTCHAR 29
ENCODING 61
SWIDTH 9000 0
DWIDTH 9 0
BBX 9 16 0 -1
BITMAP
0000
0000
0000
FEFE
0000
FEFE
0000
0000
0000
0000
0000
0000
0000
0000
0000
0000
ENDCHAR
STARTCHAR 30
ENCODING 62
SWIDTH 9000 0
DWIDTH 9 0
BBX 9 16 0 -1
BITMAP
0000
0000
C060
3018
0C0C
1830
60C0
0000
0000
0000
0000
0000
0000
0000
0000
0000
ENDCHAR
STARTCHAR 31
ENCODING 63
SWIDTH 9000 0
DWIDTH 9 0
BBX 9 16 0 -1
BITMAP
0000
0000
0000
0000
0000
0000
0000
0000
0000
0000
0000
0000
0000
0000
0000
0000
ENDCHAR
STARTCHAR 32
ENCODING 64
SWIDTH 9000 0
DWIDTH 9 0
BBX 9 16 0 -1
BITMAP
001E
3F63
E1C9
DDD5
D5DF
CFE0
603F
1F00
0000
0080
8080
8080
8080
0000
0080
0000
ENDCHAR
STARTCHAR 33
ENCODING 65
SWIDTH 9000 0
DWIDTH 9 0
BBX 9 16 0 -1
BITMAP
3E7F
E3C1
C1C1
FFFF
C1C1
C1C1
C1C1
C1C1
0000
8080
8080
8080
8080
8080
8080
8080
ENDCHAR
STARTCHAR 34
ENCODING 66
SWIDTH 9000 0
DWIDTH 9 0
BBX 9 16 0 -1
BITMAP
FEFF
C3C1
C1C3
FFFF
C3C1
C1C1
C1C3
FFFE
0000
8080
8080
0000
8080
8080
8080
0000
ENDCHAR
STARTCHAR 35
ENCODING 67
SWIDTH 9000 0
DWIDTH 9 0
BBX 9 16 0 -1
BITMAP
3E7F
E1C0
C0C0
C0C0
C0C0
C0C0
C061
3F3E
0000
8080
0000
0000
0000
0000
8080
0000
ENDCHAR
STARTCHAR 36
ENCODING 68
SWIDTH 9000 0
DWIDTH 9 0
BBX 9 16 0 -1
BITMAP
FEFF
C3C1
C1C1
C1C1
C1C1
C1C1
C1C3
FFFE
0000
8080
8080
8080
8080
8080
8080
0000
ENDCHAR
STARTCHAR 37
ENCODING 69
SWIDTH 9000 0
DWIDTH 9 0
BBX 9 16 0 -1
BITMAP
FFFF
C0C0
C0C0
FEFE
C0C0
C0C0
C0C0
FFFF
8080
0000
0000
0000
0000
0000
0000
8080
ENDCHAR
STARTCHAR 38
ENCODING 70
SWIDTH 9000 0
DWIDTH 9 0
BBX 9 16 0 -1
BITMAP
FFFF
C0C0
C0C0
FEFE
C0C0
C0C0
C0C0
C0C0
8080
0000
0000
0000
0000
0000
0000
0000
ENDCHAR
STARTCHAR 39
ENCODING 71
SWIDTH 9000 0
DWIDTH 9 0
BBX 9 16 0 -1
BITMAP
3F7F
E0C0
C0C0
CFCF
C1C1
C1C1
C1C1
7F3F
8080
0000
0000
8080
8080
8080
8080
8080
ENDCHAR
STARTCHAR 40
ENCODING 72
SWIDTH 9000 0
DWIDTH 9 0
BBX 9 16 0 -1
BITMAP
C1C1
C1C1
C1C1
FFFF
C1C1
C1C1
C1C1
C1C1
8080
8080
8080
8080
8080
8080
8080
8080
ENDCHAR
STARTCHAR 41
ENCODING 73
SWIDTH 9000 0
DWIDTH 9 0
BBX 9 16 0 -1
BITMAP
FCFC
3030
3030
3030
3030
3030
3030
FCFC
0000
0000
0000
0000
0000
0000
0000
0000
ENDCHAR
STARTCHAR 42
ENCODING 74
SWIDTH 9000 0
DWIDTH 9 0
BBX 9 16 0 -1
BITMAP
FCFC
0C0C
0C0C
0C0C
0C0C
0C0C
0CCC
FC78
0000
0000
0000
0000
0000
0000
0000
0000
ENDCHAR
STARTCHAR 43
ENCODING 75
SWIDTH 9000 0
DWIDTH 9 0
BBX 9 16 0 -1
BITMAP
C6C6
CCCC
D8D8
F0F0
D8D8
CCCC
C6C6
C3C3
0000
0000
0000
0000
0000
0000
0000
0000
ENDCHAR
STARTCHAR 44
ENCODING 76
SWIDTH 9000 0
DWIDTH 9 0
BBX 9 16 0 -1
BITMAP
C0C0
C0C0
C0C0
C0C0
C0C0
C0C0
C0C0
FCFC
0000
0000
0000
0000
0000
0000
0000
0000
ENDCHAR
STARTCHAR 45
ENCODING 77
SWIDTH 9000 0
DWIDTH 9 0
BBX 9 16 0 -1
BITMAP
80C1
E3F7
FFDD
C9C1
C1C1
C1C1
C1C1
C1C1
8080
8080
8080
8080
8080
8080
8080
8080
ENDCHAR
STARTCHAR 46
ENCODING 78
SWIDTH 9000 0
DWIDTH 9 0
BBX 9 16 0 -1
BITMAP
C1C1
E1E1
F1F1
D9D9
CDCD
C7C7
C3C3
C1C1
8080
8080
8080
8080
8080
8080
8080
8080
ENDCHAR
STARTCHAR 47
ENCODING 79
SWIDTH 9000 0
DWIDTH 9 0
BBX 9 16 0 -1
BITMAP
3E7F
E3C1
C1C1
C1C1
C1C1
C1C1
C1E3
7F3E
0000
8080
8080
8080
8080
8080
8080
0000
ENDCHAR
STARTCHAR 48
ENCODING 80
SWIDTH 9000 0
DWIDTH 9 0
BBX 9 16 0 -1
BITMAP
FEFF
C3C1
C1C1
C3FF
FEC0
C0C0
C0C0
C0C0
0000
8080
8080
8000
0000
0000
0000
0000
ENDCHAR
STARTCHAR 49
ENCODING 81
SWIDTH 9000 0
DWIDTH 9 0
BBX 9 16 0 -1
BITMAP
3E7F
E3C1
C1C1
C1C1
C1C1
C1CD
CDE7
7F3D
0000
8080
8080
8080
8080
8080
8000
8080
ENDCHAR
STARTCHAR 50
ENCODING 82
SWIDTH 9000 0
DWIDTH 9 0
BBX 9 16 0 -1
BITMAP
FEFF
C3C1
C1C1
C3FF
FEDC
CEC7
C3C1
C1C1
0000
8080
8080
8000
0000
0000
8080
8080
ENDCHAR
STARTCHAR 51
ENCODING 83
SWIDTH 9000 0
DWIDTH 9 0
BBX 9 16 0 -1
BITMAP
3F7F
E0C0
E070
381C
0E07
0301
0103
FFFE
8080
0000
0000
0000
0000
8080
8080
0000
ENDCHAR
STARTCHAR 52
ENCODING 84
SWIDTH 9000 0
DWIDTH 9 0
BBX 9 16 0 -1
BITMAP
FFFF
1818
1818
1818
1818
1818
1818
1818
0000
0000
0000
0000
0000
0000
0000
0000
ENDCHAR
STARTCHAR 53
ENCODING 85
SWIDTH 9000 0
DWIDTH 9 0
BBX 9 16 0 -1
BITMAP
C1C1
C1C1
C1C1
C1C1
C1C1
C1C1
C1E3
7F3E
8080
8080
8080
8080
8080
8080
8080
0000
ENDCHAR
STARTCHAR 54
ENCODING 86
SWIDTH 9000 0
DWIDTH 9 0
BBX 9 16 0 -1
BITMAP
C3C3
C3C3
C3C3
C3C3
C366
6666
3C18
1818
0000
0000
0000
0000
0000
0000
0000
0000
ENDCHAR
STARTCHAR 55
ENCODING 87
SWIDTH 9000 0
DWIDTH 9 0
BBX 9 16 0 -1
BITMAP
C1C1
C1C1
C1C1
C1C1
C1C9
DDFF
F7E3
C180
8080
8080
8080
8080
8080
8080
8080
8080
ENDCHAR
STARTCHAR 56
ENCODING 88
SWIDTH 9000 0
DWIDTH 9 0
BBX 9 16 0 -1
BITMAP
C1C1
C1C1
E377
361C
1C36
77E3
C1C1
C1C1
8080
8080
8000
0000
0000
0080
8080
8080
ENDCHAR
STARTCHAR 57
ENCODING 89
SWIDTH 9000 0
DWIDTH 9 0
BBX 9 16 0 -1
BITMAP
C3C3
C3C3
E77E
3C18
1818
1818
1818
1818
0000
0000
0000
0000
0000
0000
0000
0000
ENDCHAR
STARTCHAR 58
ENCODING 90
SWIDTH 9000 0
DWIDTH 9 0
BBX 9 16 0 -1
BITMAP
FFFF
0303
0606
0C0C
1818
3030
60E0
FFFF
8080
8000
0000
0000
0000
0000
0000
8080
ENDCHAR
STARTCHAR 59
ENCODING 91
SWIDTH 9000 0
DWIDTH 9 0
BBX 9 16 0 -1
BITMAP
F8F8
C0C0
C0C0
C0C0
C0C0
C0C0
C0C0
F8F8
0000
0000
0000
0000
0000
0000
0000
0000
ENDCHAR
STARTCHAR 60
ENCODING 92
SWIDTH 9000 0
DWIDTH 9 0
BBX 9 16 0 -1
BITMAP
C0C0
6060
3030
1818
0C0C
0606
0303
0101
0000
0000
0000
0000
0000
0000
0000
8080
ENDCHAR
STARTCHAR 61
ENCODING 93
SWIDTH 9000 0
DWIDTH 9 0
BBX 9 16 0 -1
BITMAP
F8F8
1818
1818
1818
1818
1818
1818
F8F8
0000
0000
0000
0000
0000
0000
0000
0000
ENDCHAR
STARTCHAR 62
ENCODING 94
SWIDTH 9000 0
DWIDTH 9 0
BBX 9 16 0 -1
BITMAP
183C
66C3
0000
0000
0000
0000
0000
0000
0000
0000
0000
0000
0000
0000
0000
0000
ENDCHAR
STARTCHAR 63
ENCODING 95
SWIDTH 9000 0
DWIDTH 9 0
BBX 9 16 0 -1
BITMAP
0000
0000
0000
0000
0000
0000
0000
FFFF
0000
0000
0000
0000
0000
0000
0000
8080
ENDCHAR
STARTCHAR 64
ENCODING 96
SWIDTH 9000 0
DWIDTH 9 0
BBX 9 16 0 -1
BITMAP
0000
0000
0000
0000
0000
0000
0000
0000
0000
0000
0000
0000
0000
0000
0000
0000
ENDCHAR
STARTCHAR 65
ENCODING 97
SWIDTH 9000 0
DWIDTH 9 0
BBX 9 16 0 -1
BITMAP
0000
0000
0000
1E3F
3301
1F3F
3133
3F1D
0000
0000
0000
0000
8080
8080
8080
8080
ENDCHAR
STARTCHAR 66
ENCODING 98
SWIDTH 9000 0
DWIDTH 9 0
BBX 9 16 0 -1
BITMAP
0000
0000
0000
0000
0000
0000
0000
0000
0000
0000
0000
0000
0000
0000
0000
0000
ENDCHAR
STARTCHAR 67
ENCODING 99
SWIDTH 9000 0
DWIDTH 9 0
BBX 9 16 0 -1
BITMAP
0000
0000
0000
0000
0000
0000
0000
0000
0000
0000
0000
0000
0000
0000
0000
0000
ENDCHAR
STARTCHAR 68
ENCODING 100
SWIDTH 9000 0
DWIDTH 9 0
BBX 9 16 0 -1
BITMAP
0000
0000
0000
0000
0000
0000
0000
0000
0000
0000
0000
0000
0000
0000
0000
0000
ENDCHAR
STARTCHAR 69
ENCODING 101
SWIDTH 9000 0
DWIDTH 9 0
BBX 9 16 0 -1
BITMAP
0000
0000
0000
0000
0000
0000
0000
0000
0000
0000
0000
0000
0000
0000
0000
0000
ENDCHAR
STARTCHAR 70
ENCODING 102
SWIDTH 9000 0
DWIDTH 9 0
BBX 9 16 0 -1
BITMAP
0000
0000
0000
0000
0000
0000
0000
0000
0000
0000
0000
0000
0000
0000
0000
0000
ENDCHAR
STARTCHAR 71
ENCODING 103
SWIDTH 9000 0
DWIDTH 9 0
BBX 9 16 0 -1
BITMAP
0000
0000
0000
0000
0000
0000
0000
0000
0000
0000
0000
0000
0000
0000
0000
0000
ENDCHAR
STARTCHAR 72
ENCODING 104
SWIDTH 9000 0
DWIDTH 9 0
BBX 9 16 0 -1
BITMAP
0000
0000
0000
0000
0000
0000
0000
0000
0000
0000
0000
0000
0000
0000
0000
0000
ENDCHAR
STARTCHAR 73
ENCODING 105
SWIDTH 9000 0
DWIDTH 9 0
BBX 9 16 0 -1
BITMAP
0000
0000
0000
0000
0000
0000
0000
0000
0000
0000
0000
0000
0000
0000
0000
0000
ENDCHAR
STARTCHAR 74
ENCODING 106
SWIDTH 9000 0
DWIDTH 9 0
BBX 9 16 0 -1
BITMAP
0000
0000
0000
0000
0000
0000
0000
0000
0000
0000
0000
0000
0000
0000
0000
0000
ENDCHAR
STARTCHAR 75
ENCODING 107
SWIDTH 9000 0
DWIDTH 9 0
BBX 9 16 0 -1
BITMAP
0000
0000
0000
0000
0000
0000
0000
0000
0000
0000
0000
0000
0000
0000
0000
0000
ENDCHAR
STARTCHAR 76
ENCODING 108
SWIDTH 9000 0
DWIDTH 9 0
BBX 9 16 0 -1
BITMAP
0000
0000
0000
0000
0000
0000
0000
0000
0000
0000
0000
0000
0000
0000
0000
0000
ENDCHAR
STARTCHAR 77
ENCODING 109
SWIDTH 9000 0
DWIDTH 9 0
BBX 9 16 0 -1
BITMAP
0000
0000
0000
0000
0000
0000
0000
0000
0000
0000
0000
0000
0000
0000
0000
0000
ENDCHAR
STARTCHAR 78
ENCODING 110
SWIDTH 9000 0
DWIDTH 9 0
BBX 9 16 0 -1
BITMAP
0000
0000
0000
0000
0000
0000
0000
0000
0000
0000
0000
0000
0000
0000
0000
0000
ENDCHAR
STARTCHAR 79
ENCODING 111
SWIDTH 9000 0
DWIDTH 9 0
BBX 9 16 0 -1
BITMAP
0000
0000
0000
0000
0000
0000
0000
0000
0000
0000
0000
0000
0000
0000
0000
0000
ENDCHAR
STARTCHAR 80
ENCODING 112
SWIDTH 9000 0
DWIDTH 9 0
BBX 9 16 0 -1
BITMAP
0000
0000
0000
0000
0000
0000
0000
0000
0000
0000
0000
0000
0000
0000
0000
0000
ENDCHAR
STARTCHAR 81
ENCODING 113
SWIDTH 9000 0
DWIDTH 9 0
BBX 9 16 0 -1
BITMAP
0000
0000
0000
0000
0000
0000
0000
0000
0000
0000
0000
0000
0000
0000
0000
0000
ENDCHAR
STARTCHAR 82
ENCODING 114
SWIDTH 9000 0
DWIDTH 9 0
BBX 9 16 0 -1
BITMAP
0000
0000
0000
0000
0000
0000
0000
0000
0000
0000
0000
0000
0000
0000
0000
0000
ENDCHAR
STARTCHAR 83
ENCODING 115
SWIDTH 9000 0
DWIDTH 9 0
BBX 9 16 0 -1
BITMAP
0000
0000
0000
0000
0000
0000
0000
0000
0000
0000
0000
0000
0000
0000
0000
0000
ENDCHAR
STARTCHAR 84
ENCODING 116
SWIDTH 9000 0
DWIDTH 9 0
BBX 9 16 0 -1
BITMAP
0000
0000
0000
0000
0000
0000
0000
0000
0000
0000
0000
0000
0000
0000
0000
0000
ENDCHAR
STARTCHAR 85
ENCODING 117
SWIDTH 9000 0
DWIDTH 9 0
BBX 9 16 0 -1
BITMAP
0000
0000
0000
0000
0000
0000
0000
0000
0000
0000
0000
0000
0000
0000
0000
0000
ENDCHAR
STARTCHAR 86
ENCODING 118
SWIDTH 9000 0
DWIDTH 9 0
BBX 9 16 0 -1
BITMAP
0000
0000
0000
0000
0000
0000
0000
0000
0000
0000
0000
0000
0000
0000
0000
0000
ENDCHAR
STARTCHAR 87
ENCODING 119
SWIDTH 9000 0
DWIDTH 9 0
BBX 9 16 0 -1
BITMAP
0000
0000
0000
0000
0000
0000
0000
0000
0000
0000
0000
0000
0000
0000
0000
0000
ENDCHAR
STARTCHAR 88
ENCODING 120
SWIDTH 9000 0
DWIDTH 9 0
BBX 9 16 0 -1
BITMAP
0000
0000
0000
0000
0000
0000
0000
0000
0000
0000
0000
0000
0000
0000
0000
0000
ENDCHAR
STARTCHAR 89
ENCODING 121
SWIDTH 9000 0
DWIDTH 9 0
BBX 9 16 0 -1
BITMAP
0000
0000
0000
0000
0000
0000
0000
0000
0000
0000
0000
0000
0000
0000
0000
0000
ENDCHAR
STARTCHAR 90
ENCODING 122
SWIDTH 9000 0
DWIDTH 9 0
BBX 9 16 0 -1
BITMAP
0000
0000
0000
FEFE
060C
1830
60C0
FEFE
0000
0000
0000
0000
0000
0000
0000
0000
ENDCHAR
STARTCHAR 91
ENCODING 123
SWIDTH 9000 0
DWIDTH 9 0
BBX 9 16 0 -1
BITMAP
0000
0000
0000
0000
0000
0000
0000
0000
0000
0000
0000
0000
0000
0000
0000
0000
ENDCHAR
STARTCHAR 92
ENCODING 124
SWIDTH 9000 0
DWIDTH 9 0
BBX 9 16 0 -1
BITMAP
3030
3030
3030
3030
3030
3030
3030
3030
0000
0000
0000
0000
0000
0000
0000
0000
ENDCHAR
STARTCHAR 93
ENCODING 125
SWIDTH 9000 0
DWIDTH 9 0
BBX 9 16 0 -1
BITMAP
0000
0000
0000
0000
0000
0000
0000
0000
0000
0000
0000
0000
0000
0000
0000
0000
ENDCHAR
STARTCHAR 94
ENCODING 126
SWIDTH 9000 0
DWIDTH 9 0
BBX 9 16 0 -1
BITMAP
396F
C600
0000
0000
0000
0000
0000
0000
8000
0000
0000
0000
0000
0000
0000
0000
ENDCHAR
STARTCHAR 95
ENCODING 127
SWIDTH 9000 0
DWIDTH 9 0
BBX 9 16 0 -1
BITMAP
0000
0000
0000
0000
0000
0000
0000
0000
0000
0000
0000
0000
0000
0000
0000
0000
ENDCHAR
ENDFONT
